<svg width="217" height="58" viewBox="0 0 217 58" fill="none" xmlns="http://www.w3.org/2000/svg">
<path d="M26.44 40.7868C22.8532 39.4546 19.164 39.2497 15.7822 40.172C13.4251 40.7869 11.1706 42.0166 9.12101 43.5538L7.68628 44.7836L7.27637 45.1935L8.19867 46.0133C8.30115 46.0133 8.30117 46.1158 8.40365 46.2183C8.6086 46.4232 8.81358 46.5257 9.12101 46.7307L9.73587 47.1406L10.3507 46.6282C10.4532 46.5257 10.6582 46.3207 10.8631 46.2183C12.7078 44.6811 14.7574 43.6563 16.9094 43.1439C19.6764 42.4265 22.6483 42.529 25.6202 43.6563C28.0797 44.5786 33.1012 45.7059 39.1474 43.1439L39.3524 43.0414L39.6598 42.734C39.6598 42.6315 39.7623 42.6315 39.8648 42.529C40.3772 41.9141 40.8896 41.2992 41.2995 40.5819L43.3491 37.405L40.0698 39.2496C35.2532 41.9141 30.8466 42.4265 26.44 40.7868Z" fill="#155EEF"/>
<path d="M12.4003 29.7197C15.1672 29.0023 18.1391 29.1048 21.111 30.2321C24.3904 31.4618 32.7937 33.204 42.2218 24.6982L43.759 23.161L43.8615 23.0585L44.2714 22.6486L44.0664 22.1362C43.9639 21.7263 43.759 21.2139 43.554 20.7015L43.0416 19.2668L42.0168 20.2915C41.9143 20.4965 41.7094 20.599 41.5044 20.8039C36.9953 25.4155 30.0267 30.1296 22.0334 27.2602C18.4466 25.9279 14.7573 25.723 11.3755 26.6453C8.09617 27.5676 5.22674 29.3097 2.56228 31.7692V31.6668L1.02509 33.3064C1.02509 33.4089 0.922631 33.4089 0.820152 33.5114L0.512695 33.8188L0.615181 34.2287C0.71766 34.7411 0.922613 35.2535 1.02509 35.7659L1.63997 37.4056L2.66477 36.0734C2.76725 35.8684 2.9722 35.766 3.07468 35.561C5.22674 33.6139 8.19865 30.8469 12.4003 29.7197Z" fill="#155EEF"/>
<path d="M2.45953 27.8749C4.81655 25.4154 7.481 23.8782 10.3504 23.0584C13.1174 22.341 16.0893 22.4435 19.0612 23.5708C28.2843 26.9526 36.2777 21.4187 39.762 18.4468L41.0942 17.1146L41.6066 16.7047L41.1967 16.0898C40.8893 15.7824 40.6843 15.3724 40.3769 14.9625L39.762 14.1427L39.0446 14.86C38.9422 14.9625 38.7372 15.1675 38.6347 15.2699C34.3306 19.3691 27.6694 23.5708 20.086 20.7014C16.4992 19.3691 12.8099 19.1642 9.42811 20.0865C7.27605 20.7014 5.22645 21.7262 3.17687 23.0584L1.02479 24.8005C0.819835 25.0055 0.717355 25.108 0.512397 25.3129L0.307457 25.5179V25.8253C0.204977 26.5427 0.204965 27.2601 0.102486 27.8749L0 30.4369L1.74216 28.5923C1.94712 28.3873 2.15209 28.0799 2.45953 27.8749Z" fill="#155EEF"/>
<path d="M29.4112 47.7556L29.2062 48.3704L29.4112 47.7556C29.1037 47.6531 28.8988 47.5506 28.5913 47.4481C25.0046 46.1159 21.3153 45.9109 17.9335 46.8332C17.2161 47.0382 16.4988 47.2431 15.7814 47.5506L13.3219 48.6779L12.707 48.9853L14.7566 49.7027C15.3715 49.9076 15.9864 50.1126 16.6012 50.3175L16.9087 50.42L17.2161 50.3175C17.5236 50.2151 17.831 50.0101 18.1384 50.0101C18.3434 50.0101 18.5483 49.9076 18.7533 49.8051C21.2128 49.1903 23.8773 49.1903 26.7467 50.1126C27.0541 50.215 27.2591 50.3175 27.5665 50.42L28.0789 50.625L28.3864 50.5225C29.1037 50.3175 29.9236 50.1126 30.5384 49.8051L33.4078 48.7803L30.4359 48.063C30.1285 47.9605 29.7186 47.858 29.4112 47.7556Z" fill="#155EEF"/>
<path d="M45.0919 26.5426L43.5547 28.0798C43.3497 28.2848 43.1448 28.4897 42.9398 28.6947C38.7382 32.6914 31.9745 36.9955 24.3911 34.1261C20.8043 32.7939 17.115 32.5889 13.7332 33.5112C10.5564 34.4335 7.68692 36.0732 5.12494 38.5327L3.79272 39.9674L3.38281 40.4798L3.79272 41.0947C4.10016 41.5046 4.30513 41.8121 4.51009 42.222L5.12494 43.1443L5.84231 42.222C5.94479 42.1195 6.14974 41.9145 6.25222 41.812C8.71172 39.1476 11.3762 37.5079 14.4506 36.6881C17.2175 35.9707 20.1894 36.0732 23.1613 37.2005C25.7233 38.1228 28.3878 38.4302 31.0522 38.1228C35.7663 37.6104 40.4803 34.9459 43.9646 31.974C44.1696 31.7691 44.3745 31.6666 44.5795 31.4616L44.8869 31.1542V30.8468C44.8869 30.2319 44.9894 29.5145 44.9894 28.8997L45.0919 26.5426Z" fill="#155EEF"/>
<path d="M6.14879 17.1147L5.84136 16.4998L6.14879 17.1147C6.76366 16.8073 7.48104 16.6023 8.09592 16.3974C10.8629 15.68 13.8348 15.7825 16.8067 16.9098C18.7538 17.6271 20.7009 17.9345 22.8529 17.9345C27.1571 17.9345 31.4612 16.3974 35.4579 13.4255L36.9951 12.1957L37.5075 11.7858L36.5852 11.0684C36.2777 10.761 35.8678 10.4536 35.4579 10.2486L34.843 9.83868L34.3306 10.2486C34.1256 10.3511 34.0232 10.556 33.8182 10.6585C28.3868 14.7577 22.9554 15.885 17.8315 13.9379C14.1422 12.6056 10.4529 12.2982 6.76367 13.4255C6.45623 13.5279 6.14879 13.6304 5.73887 13.7329L5.53394 13.8354L5.22648 14.1428C5.22648 14.2453 5.12402 14.2453 5.02154 14.3478C4.61162 14.9626 4.09921 15.4751 3.68929 16.0899L1.74219 19.0618L4.91905 17.4221C5.43145 17.4221 5.84135 17.2172 6.14879 17.1147Z" fill="#155EEF"/>
<path d="M14.5518 10.1456L14.8592 10.2481C16.1915 10.7605 18.2411 11.2729 20.8031 11.2729C23.4675 11.2729 26.0295 10.658 28.5915 9.63324L31.7683 8.09605L29.6163 7.37871C29.0014 7.17376 28.3865 6.9688 27.6692 6.86632H27.3617L27.0543 6.96877C26.7469 7.07125 26.4394 7.27624 26.132 7.37871C23.0576 8.50599 19.9832 8.71095 17.0113 7.89111C16.7039 7.78863 16.3964 7.68613 16.089 7.58365L15.7816 7.48117L15.4741 7.58365C14.8592 7.78861 14.2444 7.99358 13.6295 8.30102L11.2725 9.32582L13.732 10.0432C13.9369 9.94067 14.2444 10.0432 14.5518 10.1456Z" fill="#155EEF"/>
<path d="M72.1321 46.8974C62.8579 46.8974 56.6606 40.7001 56.6606 31.4259C56.6606 22.1518 62.8579 15.9545 72.1321 15.9545C78.8927 15.9545 84.5699 20.5916 86.3034 27.5256H80.5829C79.1527 23.7119 75.7724 21.155 72.1321 21.155C66.3249 21.155 62.4679 25.272 62.4679 31.4259C62.4679 37.5799 66.3249 41.6969 72.1321 41.6969C76.2058 41.6969 79.6728 38.88 80.8429 34.6329H86.4334C85.0033 42.0003 79.2827 46.8974 72.1321 46.8974ZM100.443 46.8974C93.3786 46.8974 88.6981 42.3036 88.6981 35.4563C88.6981 28.609 93.3786 24.0153 100.443 24.0153C107.507 24.0153 112.187 28.609 112.187 35.4563V36.4531L111.754 36.8865H93.9853C94.462 40.3101 97.0622 42.5637 100.443 42.5637C102.999 42.5637 105.383 41.0902 106.38 38.9233H111.667C110.237 43.6904 105.73 46.8974 100.443 46.8974ZM94.332 32.5527H106.553C105.556 29.8658 103.346 28.349 100.443 28.349C97.539 28.349 95.3287 29.8658 94.332 32.5527ZM115.296 46.2907V16.5612H120.497V46.2907H115.296ZM125.327 46.2907V16.5612H130.527V46.2907H125.327ZM149.115 46.8974C139.841 46.8974 133.644 40.7001 133.644 31.4259C133.644 22.1518 139.841 15.9545 149.115 15.9545C155.876 15.9545 161.553 20.5916 163.286 27.5256H157.566C156.136 23.7119 152.755 21.155 149.115 21.155C143.308 21.155 139.451 25.272 139.451 31.4259C139.451 37.5799 143.308 41.6969 149.115 41.6969C153.189 41.6969 156.656 38.88 157.826 34.6329H163.416C161.986 42.0003 156.266 46.8974 149.115 46.8974ZM166.548 46.2907V16.5612H171.748V46.2907H166.548ZM186.133 46.8974C179.372 46.8974 174.865 42.3036 174.865 35.4563C174.865 28.609 179.372 24.0153 186.133 24.0153C188.69 24.0153 191.507 25.1854 193.153 26.9622V24.622H198.354V46.2907H193.153V43.9504C191.507 45.7273 188.69 46.8974 186.133 46.8974ZM186.653 42.3036C190.553 42.3036 193.153 39.5734 193.153 35.4563C193.153 31.3393 190.553 28.609 186.653 28.609C182.709 28.609 180.065 31.3393 180.065 35.4563C180.065 39.5734 182.709 42.3036 186.653 42.3036ZM202.352 46.2907V24.622H207.553V27.1789C208.679 25.4021 210.803 24.1886 212.796 24.1886C213.576 24.1886 214.487 24.362 215.093 24.622V28.609H213.316C209.849 28.609 207.553 30.5592 207.553 33.4628V46.2907H202.352Z" fill="#19213D"/>
</svg>
