<svg width="109" height="118" viewBox="0 0 109 118" fill="none" xmlns="http://www.w3.org/2000/svg">
<path d="M22.1007 22.2405C22.4775 15.4828 24.545 10.6351 28.3399 8.82176C32.8516 6.66389 39.4858 8.91545 47.3759 16.4952C49.4587 18.4959 51.5813 21.0618 54.3686 24.8426L67.5023 24.8124C61.839 17.55 56.7178 12.666 53.1128 9.5743C50.5185 7.34994 47.284 4.83242 42.7754 2.93144C38.8916 1.29642 31.5192 -1.81044 26.0519 1.3901C20.6428 4.5574 19.5708 12.1946 19.3411 18.2602C19.2614 20.3576 19.3135 22.588 19.4881 24.9242L22.0395 24.9181C22.0334 23.9994 22.0517 23.1048 22.0977 22.2405H22.1007Z" fill="#F6F1FF"/>
<path d="M75.3677 99.1167C71.1102 105.098 63.5663 103.363 55.229 96.17C54.3193 95.3873 53.4158 94.5441 52.5153 93.6555H47.2471C50.797 98.4609 54.5552 102.843 58.4298 106.563C69.3184 117.023 79.7997 121.106 86.2288 114.787C90.9732 110.121 91.4235 99.57 91.255 93.6555H76.5929C76.4611 96.3755 76.1304 98.0468 75.3708 99.1167H75.3677Z" fill="#F6F1FF"/>
<path d="M0.00306123 38.3398H3.61117V44.889H13.9577V36.4388H0.00306123V32.5371H14.8735C15.2503 32.5371 15.6025 32.6157 15.9363 32.7698C16.2702 32.924 16.5551 33.1295 16.7909 33.3864C17.0267 33.6432 17.2136 33.9424 17.3545 34.293C17.4923 34.6406 17.5628 35.0002 17.5628 35.372V45.8893C17.5628 46.3064 17.4923 46.6932 17.3545 47.0498C17.2166 47.4065 17.0329 47.7117 16.8032 47.9656C16.5734 48.2194 16.3039 48.4219 15.9884 48.57C15.676 48.7181 15.3513 48.7906 15.0175 48.7906H0V38.3428L0.00306123 38.3398Z" fill="#F6F1FF"/>
<path d="M21.8407 35.4385C22.0643 34.6014 22.4349 33.9093 22.9556 33.3592C23.4763 32.8092 24.196 32.5342 25.1149 32.5342H29.4734C30.4046 32.5342 31.1489 32.8092 31.7063 33.3592C32.2607 33.9093 32.6528 34.6014 32.8733 35.4385L36.46 48.7877H32.4567L31.4766 44.886H24.8638L25.6969 40.9843H30.4934L29.3662 36.4329H25.3201L22.2327 48.7847H18.2295L21.8376 35.4355L21.8407 35.4385Z" fill="#F6F1FF"/>
<path d="M37.7144 35.4384C37.7144 35.0214 37.7848 34.6345 37.9226 34.2779C38.0605 33.9213 38.2473 33.616 38.474 33.3622C38.7037 33.1083 38.9732 32.9058 39.2887 32.7577C39.6011 32.6096 39.9258 32.5371 40.2596 32.5371H52.4623C52.839 32.5371 53.1851 32.6157 53.5037 32.7698C53.8222 32.924 54.0979 33.1295 54.3276 33.3864C54.5573 33.6432 54.738 33.9424 54.8697 34.293C55.0014 34.6406 55.0688 35.0002 55.0688 35.372V40.1561C55.0688 40.5732 54.9984 40.9601 54.8606 41.3167C54.7227 41.6733 54.5359 41.9785 54.3062 42.2324C54.0764 42.4893 53.8069 42.6888 53.4914 42.8369C53.179 42.985 52.8543 43.0575 52.5205 43.0575H51.1024L55.127 48.7937H50.7899L46.6397 43.0575H43.053V39.1558H51.4577V36.4388H41.3225V48.7906H37.7144V35.4415V35.4384Z" fill="#F6F1FF"/>
<path d="M57.1543 32.5371H60.7624V38.8989H64.0152L68.4381 32.5371H72.6098L67.167 40.4312L73.6328 48.7906H69.0231L64.2051 42.8006H60.7624V48.7906H57.1543V32.5371Z" fill="#F6F1FF"/>
<path d="M0.333496 55.4822C0.333496 55.1256 0.361064 54.769 0.416196 54.4154C0.471329 54.0588 0.581592 53.7384 0.750053 53.4513C0.91545 53.1642 1.15436 52.9315 1.46065 52.7562C1.76694 52.5779 2.16205 52.4902 2.64906 52.4902H2.87878C3.36578 52.4902 3.7854 52.5839 4.1407 52.7683C4.496 52.9526 4.8176 53.1944 5.11164 53.4876L10.389 58.5951L15.6664 53.4876C15.9574 53.1944 16.2821 52.9526 16.6374 52.7683C16.9927 52.5839 17.4123 52.4902 17.8993 52.4902H18.129C18.616 52.4902 19.0111 52.5779 19.3174 52.7562C19.6237 52.9345 19.8596 53.1672 20.028 53.4513C20.1965 53.7384 20.3068 54.0588 20.3619 54.4154C20.417 54.772 20.4446 55.1286 20.4446 55.4822V68.9735H16.8365V57.4799L12.1839 61.9377V68.9735H8.59724V61.9377L3.94467 57.4799V68.9735H0.33656V55.4822H0.333496Z" fill="#F6F1FF"/>
<path d="M25.3011 55.6209C25.5247 54.7838 25.8953 54.0917 26.416 53.5416C26.9367 52.9916 27.6565 52.7166 28.5754 52.7166H32.9339C33.865 52.7166 34.6093 52.9916 35.1668 53.5416C35.7212 54.0917 36.1132 54.7838 36.3337 55.6209L39.9204 68.9701H35.9172L34.937 65.0684H28.3242L29.1573 61.1667H33.9538L32.8267 56.6152H28.7806L25.6932 68.9671H21.6899L25.2981 55.6179L25.3011 55.6209Z" fill="#F6F1FF"/>
<path d="M44.0944 56.6217H37.0864V52.72H54.6706V56.6217H47.7056V68.9735H44.0974V56.6217H44.0944Z" fill="#F6F1FF"/>
<path d="M62.3024 56.6217H55.2944V52.72H72.8786V56.6217H65.9136V68.9735H62.3055V56.6217H62.3024Z" fill="#F6F1FF"/>
<path d="M74.0234 55.6213C74.0234 55.2042 74.0939 54.8174 74.2317 54.4608C74.3695 54.1042 74.5564 53.7989 74.783 53.545C75.0128 53.2912 75.2823 53.0887 75.5978 52.9406C75.9102 52.7925 76.2349 52.72 76.5687 52.72H89.7086V56.6217H77.6316V58.71H88.0608V62.6117H77.6316V65.0718H89.7086V68.9735H76.7157C76.339 68.9735 75.9868 68.8949 75.6529 68.7408C75.319 68.5867 75.0342 68.3812 74.7984 68.1243C74.5625 67.8674 74.3726 67.5682 74.2348 67.2176C74.0969 66.87 74.0265 66.5104 74.0265 66.1387V55.6213H74.0234Z" fill="#F6F1FF"/>
<path d="M91.5845 55.6213C91.5845 55.2042 91.6549 54.8174 91.7927 54.4608C91.9306 54.1042 92.1174 53.7989 92.3441 53.545C92.5738 53.2912 92.8433 53.0887 93.1588 52.9406C93.4712 52.7925 93.7959 52.72 94.1298 52.72H106.332C106.709 52.72 107.055 52.7985 107.374 52.9527C107.692 53.1068 107.968 53.3123 108.198 53.5692C108.427 53.8261 108.608 54.1253 108.74 54.4759C108.872 54.8234 108.939 55.1831 108.939 55.5548V60.339C108.939 60.7561 108.868 61.1429 108.731 61.4995C108.593 61.8562 108.406 62.1614 108.176 62.4153C107.947 62.6722 107.677 62.8716 107.362 63.0197C107.049 63.1678 106.724 63.2403 106.391 63.2403H104.972L108.997 68.9765H104.66L100.51 63.2403H96.9231V59.3387H105.328V56.6217H95.1926V68.9735H91.5845V55.6243V55.6213Z" fill="#F6F1FF"/>
<path d="M0.385254 73.0833H1.60429L5.09602 84.3562H8.34883L11.8406 73.0833H13.0106L9.48517 84.4075C9.34734 84.8488 9.16051 85.151 8.92466 85.3172C8.68882 85.4834 8.43459 85.5681 8.15587 85.5681H5.23998C4.96125 85.5681 4.70703 85.4804 4.47118 85.3082C4.23534 85.1359 4.0485 84.8367 3.91067 84.4075L0.385254 73.0833Z" fill="#F6F1FF"/>
<path d="M13.6836 74.3858C13.6836 74.0171 13.7969 73.7088 14.0297 73.458C14.2594 73.2072 14.5351 73.0833 14.8536 73.0833H25.7331V74.2952H14.8536V78.5928H24.4038V79.8047H14.8536V84.3531H25.7331V85.565H14.8536C14.5228 85.565 14.2441 85.4381 14.0205 85.1812C13.7969 84.9243 13.6836 84.6191 13.6836 84.2625V74.3828V74.3858Z" fill="#F6F1FF"/>
<path d="M26.8867 75.7217C26.8867 75.2805 26.8959 74.8876 26.9112 74.537C26.9265 74.1865 26.9694 73.8903 27.0399 73.6455C27.1103 73.4007 27.2145 73.2163 27.3523 73.0924C27.4901 72.9685 27.6831 72.905 27.9281 72.905C28.1088 72.905 28.2773 72.9443 28.4335 73.0199C28.5866 73.0985 28.7428 73.2042 28.8991 73.3402C29.0553 73.4762 29.2145 73.6425 29.3799 73.8389C29.5453 74.0354 29.7352 74.259 29.9496 74.5068L38.44 84.4953V73.0803H39.6101V82.8723C39.6101 83.3257 39.6009 83.7246 39.5856 84.0752C39.5702 84.4258 39.5274 84.725 39.4569 84.9758C39.3865 85.2267 39.2823 85.4171 39.1445 85.547C39.0067 85.677 38.8137 85.7435 38.5687 85.7435C38.388 85.7435 38.2195 85.7042 38.0633 85.6286C37.9071 85.55 37.757 85.4443 37.6069 85.3083C37.4568 85.1723 37.3006 85.006 37.1352 84.8096C36.9698 84.6131 36.7799 84.3895 36.5655 84.1417L28.0567 74.1351V85.5682H26.8867V75.7217Z" fill="#F6F1FF"/>
<path d="M46.5458 74.2952H40.3618V73.0833H53.8693V74.2952H47.7159V85.5681H46.5458V74.2952Z" fill="#F6F1FF"/>
<path d="M54.6206 73.0833H55.7906V84.3562H66.1402V73.0833H67.3103V84.2655C67.3103 84.6221 67.1969 84.9274 66.9733 85.1842C66.7497 85.4411 66.471 85.5681 66.1402 85.5681H55.7906C55.4598 85.5681 55.1811 85.4411 54.9575 85.1842C54.7339 84.9274 54.6206 84.6221 54.6206 84.2655V73.0833Z" fill="#F6F1FF"/>
<path d="M68.623 74.3858C68.623 74.0171 68.7364 73.7089 68.9692 73.458C69.1989 73.2072 69.4745 73.0833 69.7931 73.0833H79.9834C80.305 73.0833 80.5776 73.2072 80.8073 73.458C81.037 73.7089 81.1504 74.0171 81.1504 74.3858V79.2002C81.1504 79.5689 81.034 79.8772 80.8073 80.1281C80.5776 80.3789 80.3019 80.5028 79.9834 80.5028H77.5331L81.1228 85.5681H79.7139L76.0598 80.5028H71.0274V79.2909H79.9834V74.2982H69.7931V85.5711H68.623V74.3888V74.3858Z" fill="#F6F1FF"/>
<path d="M82.3057 74.3858C82.3057 74.0171 82.419 73.7088 82.6518 73.458C82.8815 73.2072 83.1572 73.0833 83.4757 73.0833H94.3552V74.2952H83.4757V78.5928H93.0259V79.8047H83.4757V84.3531H94.3552V85.565H83.4757C83.1449 85.565 82.8662 85.4381 82.6426 85.1812C82.419 84.9243 82.3057 84.6191 82.3057 84.2625V74.3828V74.3858Z" fill="#F6F1FF"/>
<path d="M95.5107 84.3532H107.833V79.8048H96.6808C96.3592 79.8048 96.0866 79.6809 95.8569 79.43C95.6271 79.1792 95.5107 78.8709 95.5107 78.5022V74.3829C95.5107 74.0142 95.6241 73.7059 95.8569 73.4551C96.0866 73.2042 96.3622 73.0803 96.6808 73.0803H107.735V74.2922H96.6808V78.5898H107.833C108.154 78.5898 108.427 78.7138 108.657 78.9646C108.886 79.2154 109 79.5237 109 79.8924V84.2626C109 84.6313 108.886 84.9395 108.657 85.1904C108.427 85.4412 108.151 85.5651 107.833 85.5651H95.5107V84.3532Z" fill="#F6F1FF"/>
</svg>
